<svg width="159" height="186" viewBox="0 0 159 186" fill="none" xmlns="http://www.w3.org/2000/svg">
<g clip-path="url(#clip0_112_39)">
<path d="M0.808594 82.0514C0.808594 82.0514 34.9893 68.4338 50.9974 53.3974C67.0139 38.3652 126.44 -8.72962 133.832 2.33571C141.223 13.401 155.079 11.9822 155.079 11.9822C155.079 11.9822 169.242 47.7262 140.3 80.3513C140.3 80.3513 117.824 96.5211 100.578 100.211C100.578 100.211 91.3406 104.182 112.278 111.558C133.215 118.933 141.529 151.844 141.529 151.844C141.529 151.844 143.686 181.35 117.513 185.321C91.3406 189.292 55.9307 158.371 55.9307 158.371C55.9307 158.371 23.2895 124.613 16.2084 109.576C9.12306 94.5356 0.808594 82.0514 0.808594 82.0514Z" fill="#FF7BAC"/>
<path d="M144.327 25.3647C144.965 25.3647 145.481 23.3331 145.481 20.8269C145.481 18.3207 144.965 16.2891 144.327 16.2891C143.69 16.2891 143.174 18.3207 143.174 20.8269C143.174 23.3331 143.69 25.3647 144.327 25.3647Z" fill="white"/>
<path d="M139.739 36.1566C140.574 34.1137 140.524 32.1603 139.628 31.7935C138.731 31.4267 137.328 32.7855 136.493 34.8284C135.658 36.8713 135.708 38.8247 136.605 39.1915C137.501 39.5583 138.904 38.1995 139.739 36.1566Z" fill="white"/>
<path d="M151.876 45.4797C153.104 43.0251 153.584 40.777 152.948 40.4584C152.312 40.1399 150.801 41.8715 149.573 44.3261C148.345 46.7807 147.865 49.0288 148.501 49.3474C149.137 49.666 150.648 47.9344 151.876 45.4797Z" stroke="#FF7BAC" stroke-width="2.07" stroke-miterlimit="10"/>
<path d="M104.076 127.018C104.076 127.018 104.076 135.955 108.175 141.059C112.273 146.164 110.423 134.561 109.832 132.496C109.198 130.28 105.968 122.971 104.076 127.014V127.018Z" fill="#F26BA2" stroke="#FF7BAC" stroke-width="1.71" stroke-miterlimit="10"/>
<path d="M113.587 125.041C113.805 127.312 116.821 129.066 117.282 133.495C117.744 137.924 121.729 131.589 119.594 127.803C118.822 126.43 113.188 120.881 113.591 125.045L113.587 125.041Z" fill="#F26BA2"/>
<path d="M127.094 129.742C125.97 128.588 123.931 129.696 124.481 131.161C125.341 133.466 125.802 137.093 126.44 140.249C128.504 150.441 130.882 142.235 130.547 138.809C130.35 136.811 129.41 132.118 127.09 129.738L127.094 129.742Z" fill="#F26BA2"/>
<path d="M61.3165 119.857C61.3165 119.857 69.2744 126.506 70.1972 129.272C71.1201 132.038 75.8647 126.875 67.5502 119.857C59.2357 112.834 61.3165 119.857 61.3165 119.857Z" fill="#F26BA2"/>
<path d="M43.996 110.281L50.2298 123.261C50.2298 123.261 54.387 124.323 48.1533 112.405C41.9195 100.492 43.996 110.277 43.996 110.277V110.281Z" stroke="#FF7BAC" stroke-width="2.07" stroke-miterlimit="10"/>
<path d="M71.7081 112.41C71.7081 112.41 91.5671 134.016 92.7249 141.194C92.7249 141.194 94.4659 145.853 95.7285 141.194C96.9912 136.534 91.4161 129.008 91.4161 129.008C91.4161 129.008 85.2579 120.285 81.7928 117.875C78.3277 115.466 75.3283 112.771 75.3283 112.771C75.3283 112.771 70.2482 109.224 71.7122 112.418L71.7081 112.41Z" fill="#F26BA2"/>
<path d="M0.543945 82.5132C16.0318 73.6978 32.1154 66.5574 47.037 57.0453C47.9054 56.5164 48.4591 56.0084 49.2142 55.2318C50.1832 54.2076 51.5844 52.7006 52.8512 51.6134C53.2582 51.2565 54.5838 50.1148 55.02 49.7328C57.8684 47.2855 60.8888 44.6283 63.733 42.2187C69.5892 37.236 75.4916 32.3204 81.5114 27.5181C87.4851 22.8082 93.9034 18.7154 100.699 15.311L101.643 14.8577L100.821 15.4328C104.143 12.5573 107.617 9.90849 111.304 7.51996C116.691 4.15755 123.931 -0.132577 130.677 0.807724C133.395 1.31146 135.341 3.37256 136.814 5.34132C137.54 6.3194 139.083 8.3931 139.818 9.32081C140.619 10.1604 141.76 10.5508 142.939 10.916C143.908 11.1888 144.919 11.3567 145.892 11.3441C148.954 11.68 152.017 12.0494 155.083 12.3852L155.142 12.7168L156.912 22.8544L156.061 23.0055L154.29 12.8679L154.697 13.2247C151.727 13.3087 148.765 13.3339 145.795 13.3926H145.934C144.751 13.569 143.597 13.5312 142.452 13.3926C140.849 13.166 138.999 12.7378 137.653 11.6212C136.642 10.7313 134.905 8.79608 133.949 7.80121C131.872 5.64356 130.601 4.67807 127.577 5.48404C120.072 7.36045 111.107 15.034 105.498 20.4113L105.263 20.6464L104.676 20.9864L103.132 21.8721C97.3097 25.3269 91.7388 29.2896 86.6041 33.7015C82.7741 36.9631 62.1893 55.0681 57.9775 58.758C56.1191 60.4833 54.0888 62.9893 51.6934 64.3452C40.5306 71.1288 28.298 75.8135 15.8682 79.6167C10.9098 81.0775 5.93031 82.404 0.833399 83.3359L0.543945 82.5216L0.543945 82.5132Z" fill="#F478D1"/>
<path d="M57.6376 95.946L71.1622 87.6093C71.33 87.5085 71.544 87.5085 71.7034 87.6176C73.4527 88.7888 83.5878 95.3164 93.0517 95.9334C93.2069 95.9418 93.3579 95.8831 93.4586 95.7697L95.1575 93.8849C95.5057 93.4987 96.479 91.786 96.2776 92.252C95.6609 93.6834 94.9184 97.2725 95.4512 97.9358C97.0369 99.8919 104.546 98.6956 106.098 98.6872C106.257 98.6872 107.357 98.5612 107.445 98.4437C108.099 97.5496 109.643 94.7916 109.886 91.1606C109.886 91.1396 109.878 91.1144 109.878 91.0934L110.012 77.6647C110.012 77.4213 110.226 77.2282 110.49 77.2282H125.282C125.307 77.2282 125.332 77.2282 125.357 77.2324C126.091 77.3415 137.078 79.0416 129.783 82.3327C123.281 85.2669 114.383 89.6704 112.042 90.8373C111.665 91.0262 111.556 91.0011 111.459 91.127C110.847 91.9288 109.697 92.8481 109.462 93.8052C109.198 94.8882 109.605 93.1755 108.871 95.6816C108.783 95.9796 107.755 98.3304 107.44 98.4395C104.903 99.3294 99.8182 100.517 99.8182 100.517C99.8182 100.517 97.2005 102.646 98.5093 104.274C99.8182 105.907 115.612 116.515 115.612 116.515C115.612 116.515 121.695 120.486 117.769 119.496C113.842 118.501 101.219 113.325 101.219 113.325L77.4337 103.183L62.8855 97.5076C62.8855 97.5076 62.0381 97.0123 57.625 95.946H57.6376Z" fill="black" stroke="black" stroke-width="2.07" stroke-miterlimit="10"/>
<path d="M71.1621 87.605C71.1621 87.605 101.001 76.0444 110.02 77.6563" stroke="black" stroke-width="2.07" stroke-miterlimit="10"/>
<path d="M71.8079 87.3616C71.8079 87.3616 85.4794 95.7613 92.9464 95.7613L96.5625 91.7902L95.7151 96.2273C95.7151 96.2273 95.023 98.1331 97.7161 98.4479C100.527 98.7753 105.338 98.28 105.338 98.28C105.338 98.28 106.924 98.4059 107.365 98.2506C109.101 97.6419 109.403 93.9983 109.378 92.5332L109.483 84.9814V77.5052C109.483 77.5052 104.227 77.4716 93.0975 80.3345C87.6272 81.7408 80.2524 84.8765 71.8037 87.3658L71.8079 87.3616Z" fill="white"/>
<path d="M105.07 66.612C105.07 66.612 123.616 54.9086 124.388 38.5247" stroke="#EF4DAD" stroke-width="2.07" stroke-miterlimit="10"/>
<path d="M125.391 68.3163C125.391 68.3163 144.788 52.7426 146.408 36.1656" stroke="#EF4DAD" stroke-width="2.07" stroke-miterlimit="10"/>
<path d="M117.769 66.612C117.769 66.612 125.882 61.9315 127.484 55.3368" stroke="#EF4DAD" stroke-width="2.07" stroke-miterlimit="10"/>
<path d="M135.899 72.1447C135.899 72.1447 147.1 64.6978 146.408 56.827" stroke="#EF4DAD" stroke-width="2.07" stroke-miterlimit="10"/>
</g>
<defs>
<clipPath id="clip0_112_39">
<rect width="158" height="185" fill="white" transform="translate(0.543945 0.669197)"/>
</clipPath>
</defs>
</svg>
